<svg width="677" height="608" viewBox="0 0 677 608" fill="none" xmlns="http://www.w3.org/2000/svg">
<rect width="677" height="608" fill="black"/>
<g clip-path="url(#clip0_1_2)">
<mask id="mask0_1_2" style="mask-type:luminance" maskUnits="userSpaceOnUse" x="171" y="112" width="288" height="289">
<path d="M171.005 112.396H458.99V400.38H171.005V112.396Z" fill="white"/>
</mask>
<g mask="url(#mask0_1_2)">
<mask id="mask1_1_2" style="mask-type:luminance" maskUnits="userSpaceOnUse" x="171" y="112" width="288" height="289">
<path d="M315 112.396C235.474 112.396 171.005 176.859 171.005 256.385C171.005 335.911 235.474 400.38 315 400.38C394.526 400.38 458.99 335.911 458.99 256.385C458.99 176.859 394.526 112.396 315 112.396Z" fill="white"/>
</mask>
<g mask="url(#mask1_1_2)">
<path d="M315 112.396C235.474 112.396 171.005 176.859 171.005 256.385C171.005 335.911 235.474 400.38 315 400.38C394.526 400.38 458.99 335.911 458.99 256.385C458.99 176.859 394.526 112.396 315 112.396Z" stroke="white" stroke-width="8"/>
</g>
</g>
<mask id="mask2_1_2" style="mask-type:luminance" maskUnits="userSpaceOnUse" x="178" y="119" width="274" height="275">
<path d="M178.182 119.568H451.807V393.193H178.182V119.568Z" fill="white"/>
</mask>
<g mask="url(#mask2_1_2)">
<mask id="mask3_1_2" style="mask-type:luminance" maskUnits="userSpaceOnUse" x="178" y="119" width="274" height="275">
<path d="M314.995 119.568C239.437 119.568 178.182 180.823 178.182 256.38C178.182 331.943 239.437 393.193 314.995 393.193C390.557 393.193 451.807 331.943 451.807 256.38C451.807 180.823 390.557 119.568 314.995 119.568Z" fill="white"/>
</mask>
<g mask="url(#mask3_1_2)">
<path d="M314.995 119.568C239.438 119.568 178.182 180.823 178.182 256.38C178.182 331.943 239.438 393.193 314.995 393.193C390.557 393.193 451.807 331.943 451.807 256.38C451.807 180.823 390.557 119.568 314.995 119.568Z" stroke="white" stroke-width="2"/>
</g>
</g>
<mask id="mask4_1_2" style="mask-type:luminance" maskUnits="userSpaceOnUse" x="241" y="155" width="148" height="214">
<path d="M241.568 155.573H388.427V368.573H241.568V155.573Z" fill="white"/>
</mask>
<g mask="url(#mask4_1_2)">
<path d="M241.88 306.656C241.969 306.604 242.047 306.531 242.13 306.474C245.677 303.802 249.406 299.568 249.635 294.953C249.391 291.422 249.526 286.974 253.021 285.047C255.078 283.823 257.464 283.453 259.776 283.073C260.115 283.005 260.224 283.078 260.328 283.411C260.427 283.599 260.589 284.932 260.911 284.417C261.354 282.625 261.948 280.875 262.365 279.068C264.724 269.156 263.37 258.667 259.51 249.313C256.328 241.375 252.24 233.583 251.745 224.891C251.385 219.391 251.807 213.609 254.016 208.505C255.078 206.083 257.786 205.453 259.927 204.417C259.823 204.146 259.031 204.141 258.74 204.073C251.839 203.615 245.865 197.349 246.557 190.344C246.781 190.333 246.87 190.578 247.005 190.714C248.021 191.953 249.391 192.745 250.932 193.115C251.052 193.141 251.083 193 251.057 192.922C250.5 191.911 250.255 190.818 250.099 189.693C249.786 187.266 249.698 184.813 249.859 182.37C249.844 182.255 249.906 182.115 250.026 182.13C250.729 182.729 251.401 183.354 252.208 183.818C252.37 183.891 252.573 184.094 252.75 184.01C252.156 181.469 252.276 178.792 252.729 176.203C252.807 176.005 252.896 174.302 253.24 175.089C254.068 177.417 256.047 181.047 258.526 181.771C257.609 180.823 256.526 180 255.922 178.771C255.609 178.172 255.281 177.578 254.969 176.979C254.906 176.865 254.766 176.724 254.922 176.604C256.156 177.375 257.396 178.307 258.896 178.578C259.552 178.667 261.26 179.151 261.771 178.901C261.531 178.391 261 178.057 260.724 177.557C259.911 176.292 259.516 174.865 259.151 173.427C259.135 173.385 259.172 173.286 259.203 173.276C259.464 173.292 259.599 173.625 259.786 173.781C260.891 175.057 262.276 176.089 263.844 176.708C265 177.156 266.141 177.021 267.266 176.573C267.646 176.302 266.943 176.161 266.786 176.047C266.198 175.776 265.682 175.406 265.219 174.964C264.922 174.792 262.927 172.031 264.255 172.917C268.193 175.182 272.385 172.833 276.036 171.161C277.359 170.604 278.677 170.016 280.109 169.771C280.333 169.734 280.365 169.625 280.224 169.438C278.083 167.276 277.281 163.672 279.182 161.109C279.714 160.38 280.682 159.531 281.615 159.531C281.703 159.62 281.583 159.708 281.521 159.776C280.781 160.568 280.953 161.698 281.266 162.635C281.87 164.385 283.135 165.495 284.807 166.172C288.823 167.698 294.193 165.391 298.354 164.781C300.427 164.385 302.516 163.958 304.635 163.953C304.75 163.932 304.969 163.984 305.01 163.844C302.458 162.807 299.453 162.927 296.708 162.833C295.255 162.792 293.844 163.016 292.443 163.365C292.141 163.401 291.823 163.615 291.526 163.505C296.203 161.177 301.594 160.391 306.771 159.885C311.276 159.521 315.802 159.188 320.313 159.594C320.396 159.583 320.505 159.505 320.396 159.417C319.089 158.333 317.438 157.927 315.833 157.526C315.786 157.375 316.151 157.365 316.25 157.333C318.661 157.089 321.052 157.526 323.417 157.927C327.401 158.677 331.484 159.203 335.208 160.797C334.516 159.276 332.63 158.141 331.229 157.276C330.219 156.708 329.146 156.307 327.984 156.182C327.714 156.193 327.677 156 327.932 155.901C333.359 154.719 338.682 157.625 343.776 159.141C344.547 159.411 345.323 159.693 346.031 160.13C346.151 160.182 346.656 160.49 346.594 160.167C345.417 158.208 343.271 156.786 341.078 156.193C340.792 156.115 340.479 156.057 340.229 155.875C345.292 154.396 351.297 158.781 355.151 161.755C360.969 166.349 366.375 172.776 365.323 180.661C365.422 180.802 365.495 180.609 365.536 180.526C366.859 177.635 366.974 174.443 366.583 171.354C372.073 181.807 366.042 193.901 359.151 202.172C358.844 202.484 359.109 202.688 359.339 202.943C362.078 205.995 363.146 210.036 363.719 214.005C363.922 215.219 364.125 216.438 364.385 217.635C365.135 220.719 366.953 223.422 367.641 226.536C367.693 226.76 367.943 227.849 367.51 227.156C366.609 225.448 365.422 223.911 364.323 222.328C362.505 219.891 362.224 216.781 361.724 213.875C361.24 210.781 360.469 207.651 358.573 205.089C357.359 203.234 355.234 202.438 353.474 201.208C346.865 196.323 340.568 194.906 332.432 195.172C332.432 195.156 332.432 195.141 332.432 195.125C329.823 195.214 327.219 195.359 324.63 195.708C323.573 195.839 322.516 196.016 321.458 196.172C321.271 196.188 320.979 196.26 321.063 196.505C321.432 197.854 321.792 199.203 322.141 200.557C322.266 201.036 322.38 201.089 321.719 201.073C319.661 201.031 317.609 200.995 315.557 200.943C314.547 200.922 314.708 200.927 314.885 201.745C315.422 204.198 316.589 206.516 318.401 208.271C318.896 208.76 319.365 209.281 319.839 209.792C320.094 210.057 320.177 210.391 320.182 210.755C320.177 211.75 319.734 212.667 319.474 213.609C319.344 214.245 319 213.797 318.714 213.557C318.188 213.464 318.734 214.146 318.755 214.469C318.766 214.734 319.245 215.708 318.693 215.583C317.99 215.354 317.245 215.281 316.521 215.188C316.099 215.339 316.724 215.719 316.786 215.953C316.974 216.313 316.438 216.292 316.214 216.344C314.141 216.583 313.453 218.938 312.536 220.49C312.266 220.833 311.995 221.974 311.495 221.776C310.531 221.427 309.557 221.099 308.573 220.813C295.651 217.391 276.943 219.661 272.578 234.464C271.167 239.589 271.479 245.042 272.365 250.234C273.292 255.057 273.083 260.021 272 264.797C270.135 273.188 265.922 280.766 261.672 288.146C261.286 288.656 262.323 288.891 262.599 289.198C273.271 297.12 283.984 305.005 294.281 313.411C297.797 316.167 301.318 319.203 305.292 321.203C296.536 307.245 288.979 290.536 292.568 273.74C292.766 272.839 293.005 271.943 293.224 271.047C293.276 270.74 293.464 270.359 293.13 270.146C286.099 264.969 281.354 257.094 279.76 248.536C279.651 247.984 279.448 247.922 279.099 248.406C278.818 248.708 278.547 249.016 278.24 249.292C276.953 250.422 274.974 250.141 273.5 249.563C272.37 248.979 272.089 248.292 272.87 247.266C274.453 245.068 276.104 242.917 277.734 240.75C278.146 240.208 278.245 239.547 278.354 238.901C279.161 231.5 286.745 226.083 293.641 230.016C294.047 230.25 294.464 230.365 294.938 230.245C298.339 229.688 301.766 229.24 305.167 228.688C317.635 226.661 330.12 224.729 342.583 222.693C345.5 222.807 348.37 223.693 351.255 224.161C355.151 224.969 364.724 227.078 366.677 230.594C366.865 230.729 367.047 230.688 367.224 230.557C367.766 230.245 368.297 230.552 368.771 230.839C371.422 232.401 373.854 234.245 376.021 236.438C376.995 237.422 377.172 237.724 377.089 239.24C376.922 242.359 376.531 245.479 375.521 248.443C375.411 248.781 375.453 249.01 375.651 249.292C377.807 252.396 376.885 257.453 373.234 258.995C372.432 259.359 371.578 259.682 371.005 260.38C370.797 260.625 370.818 260.724 371.115 260.813C371.693 260.984 372.219 261.25 372.714 261.594C373.5 262.135 374.188 262.776 374.724 263.568C374.964 263.927 375.281 264.063 375.677 263.964C377.37 263.609 377.927 262.177 377.891 260.609C377.953 260.646 378.052 260.661 378.083 260.719C378.531 261.479 378.979 262.234 379.188 263.115C380.536 267.865 375.526 270.495 371.766 271.766C371.396 271.875 371.589 272.234 371.672 272.495C372.125 273.896 371.823 275.474 370.932 276.641C370.729 276.906 370.745 276.964 370.943 277.24C373.214 280.24 374.865 283.667 377.276 286.563C378.458 287.974 379.891 289.245 381.672 289.828C382.135 289.964 382.099 290.141 381.635 290.188C380.802 290.271 379.964 290.385 379.12 290.292C379 290.276 378.823 290.177 378.76 290.354C378.781 290.453 379.089 290.651 379.219 290.714C380.448 291.443 381.083 292.813 381.427 294.146C381.438 294.328 381.625 294.932 381.438 295.01C380.266 292.932 378.37 291.25 376.016 290.578C375.875 290.536 375.792 290.641 375.859 290.771C379.359 298.234 388.24 301.557 388.161 310.708C387.885 310.536 387.813 310.172 387.625 309.911C386.766 308.307 385.516 306.964 384.099 305.839C383.974 305.766 383.083 305.031 383.177 305.474C387 312.776 390.786 320.391 386.448 328.37C386.708 325.104 387.182 321.078 384.927 318.359C384.911 318.349 384.885 318.339 384.875 318.344C384.792 318.438 384.911 318.578 384.927 318.688C385.281 319.589 385.536 320.521 385.651 321.484C386.245 331.542 378.807 344.979 370.141 349.995C377.224 339.375 364.703 330.385 355.547 327.438C357.87 329.375 359.922 331.667 361.443 334.318C361.703 334.76 361.901 335.234 362.125 335.698C362.141 335.724 362.109 335.771 362.099 335.807C359.219 332.651 355.302 330.844 351.521 328.974C347.094 326.724 343.255 323.109 338.479 321.646C338.682 322.188 339.24 322.552 339.552 323.042C340.354 324.146 341.401 325.021 342.37 325.953C337.24 323.802 332.026 320.604 328.969 315.766C328.297 314.698 327.807 313.547 327.375 312.37C327.313 312.234 327.276 311.943 327.078 312.01C325.682 314.531 323.219 316.161 320.677 317.391C320.266 317.604 320.141 317.667 320.609 317.984C326.458 321.99 331.698 326.906 335.839 332.677C343.172 342.635 347.771 357.958 339.005 368.417C325.339 336.052 299.083 319.797 271.016 299.984C266.932 297.193 263.052 294.073 258.839 291.49C256.693 290.167 253.563 291.87 254.021 294.484C254.146 295.224 254.51 295.828 255.005 296.37C262.26 304.328 269.547 312.323 276.646 320.396C269.896 315.708 263.156 310.755 256.443 305.932C256.318 305.844 256.177 305.625 256.036 305.734C255.88 305.859 256.083 306.021 256.156 306.151C256.339 306.474 256.547 306.776 256.724 307.099C258.193 309.807 260.036 312.245 262.104 314.521C273.583 326.932 289.359 334.089 301.766 345.406C304.688 348.052 307.573 350.755 310.182 353.719C310.219 353.776 310.313 353.844 310.292 353.917C310.203 353.953 310.135 353.813 310.057 353.776C301.99 346.641 293.198 340.349 283.854 334.984C272.365 328.177 259.776 323.172 249.026 315.151C246.193 312.943 243.573 310.396 241.729 307.292C241.557 307.016 241.536 306.854 241.88 306.656ZM363.74 180.714C363.766 177.391 362.672 174.036 360.802 171.385C361.276 174.188 361.464 177.031 361.385 179.896C361.438 183.781 360.656 187.719 359.714 191.38C362.349 188.573 363.807 184.583 363.74 180.714ZM356.182 188.776C360.385 183.49 360.401 175.417 356.964 169.661C356.813 169.495 355.792 167.354 355.703 168.167C356.563 170.917 356.74 173.802 356.948 176.656C357.25 180.719 357.047 184.797 356.182 188.776ZM266.339 193.958C265.76 194.406 265.146 194.646 264.417 194.672C261.234 195.089 258.068 194.906 254.979 194.016C256.833 195.234 259.104 195.823 261.281 196.214C261.891 196.307 262.51 196.354 263.115 196.438C263.255 196.469 263.469 196.49 263.505 196.573C263.563 196.729 263.359 196.786 263.255 196.875C263.068 197.036 262.87 197.188 262.693 197.354C262.172 197.833 262.016 198.12 262.109 198.073C263.313 197.365 264.323 196.365 265.797 196.229C267.839 195.948 269.698 195.146 271.453 194.068C275.755 191.547 279.531 188.188 283.984 185.917C284.25 185.807 284.703 185.547 284.125 185.563C284.12 185.547 284.12 185.536 284.115 185.526C277.682 187.042 271.563 189.901 266.339 193.958ZM354.042 183.182C354.458 184.615 355.094 178.625 354.964 177.672C355.047 172.802 351.578 166.604 347.151 163.938C347.13 163.958 347.12 164.016 347.135 164.042C347.901 165.234 348.552 166.495 349.193 167.75C351.521 172.62 353.563 177.771 354.042 183.182ZM351.109 182.203C350.542 173.51 344.052 166.365 335.802 164.042C335.693 164.042 335.349 163.875 335.339 164.057C341.859 168.891 347.214 175.24 351.073 182.318C351.083 182.307 351.104 182.229 351.109 182.203ZM346.672 186.083C346.708 186.01 346.734 185.99 346.708 185.901C344.328 173.693 331.453 167.089 319.953 166.526C330.573 170.057 340.464 176.667 346.672 186.083ZM337.438 185.427C332.74 175.786 321.474 170.953 311.208 170.885C307.344 171.01 304.359 171.214 300.849 172.167C314.016 172.063 327.672 176.427 337.438 185.427ZM326.031 186.12C314.818 172.698 294.422 169.552 278.745 176.255C278.813 176.266 278.901 176.292 278.969 176.276C294.542 173.453 313.167 176.75 326.031 186.12ZM318.099 188.807C312.927 182.604 304.781 179.026 296.724 179.021C289.469 179.01 282.286 181.828 276.75 186.453C289.922 180.391 305.87 180.667 318.099 188.807ZM268.646 207.453C269.974 206.599 271.26 205.677 272.651 204.922C276.589 202.688 280.885 200.839 285.25 199.776C283.542 200.865 281.724 201.943 280.125 203.25C279.901 203.479 279.214 203.844 279.198 204.13C289.833 199.438 301.807 197.229 313.385 198.682C308.589 196.042 302.771 194.589 297.344 194.589C286.427 194.568 276.042 199.563 268.568 207.344C268.552 207.37 268.589 207.479 268.646 207.453ZM310.406 191.151C292.875 181.505 271.401 191.505 262.141 207.974C273.958 195.026 292.714 186.255 310.406 191.151ZM348.156 245.646C346.781 241.635 346.594 237.37 346.672 233.161C346.698 231.516 346.672 229.875 346.714 228.229C346.74 227.292 346.385 226.557 345.729 225.932C345.563 225.693 343.354 223.906 343.339 224.542C343.667 225.01 344.036 225.453 344.375 225.917C345.698 227.75 345.297 230.13 345.443 232.255C345.677 237.479 345.906 246.578 350.266 250.016C352.172 251.411 354.401 252.99 356.813 253.125C356.885 253.161 358.068 252.797 357.641 252.521C356.646 252.464 355.672 252.333 354.771 251.891C352.047 250.521 349.078 248.74 348.156 245.646ZM363.255 230.875C361.354 229.224 358.885 228.432 356.578 227.51C355.927 227.271 355.26 227.063 354.599 226.839C354.505 226.807 354.417 226.766 354.323 226.833C356.661 228.323 359.13 229.755 361.417 231.365C363.422 232.938 362.958 237.396 362.896 239.75C362.688 242.813 361.75 245.719 360.417 248.458C360.333 248.651 360.151 248.818 360.229 249.063C363.229 245.172 364.38 240.135 364.453 235.292C364.505 233.75 364.49 231.99 363.255 230.875ZM375.531 238.536C375.688 237.354 371.828 234.682 370.87 233.854C370.349 233.479 370.698 233.969 370.901 234.12C371.984 235.271 374.411 237.005 374.708 238.526C374.719 241.182 374.87 243.885 374.448 246.505C374.667 247.641 375.234 244.474 375.172 244.245C375.286 242.344 375.349 240.438 375.531 238.536ZM374.984 252.818C375.151 251.833 375.115 250.807 374.427 250.021C372.688 247.964 370.531 246.302 368.828 244.208C367.859 243.156 367.24 241.87 366.385 240.734C366.01 240.281 365.667 240.88 365.573 241.24C364.583 245.13 363.198 248.849 360.922 252.182C360.448 252.964 359.911 253.766 359.828 254.698C359.641 255.906 360.833 256.797 361.927 256.719C363.682 256.641 364.995 255.292 366.719 255.042C367.984 254.75 371.177 255.089 369.677 256.927C369.094 257.391 368.391 257.641 367.724 257.953C367.464 258.073 366.557 258.609 367.047 258.891C370.526 258.505 374.453 256.682 374.984 252.818ZM350.406 286.891C350.469 287.042 350.432 287.349 350.615 287.401C350.974 284.818 351.536 282.203 353.057 279.995C353.13 279.885 353.286 279.917 353.313 280.057C353.443 282.234 354.099 284.255 355.432 286C356.635 287.615 358.365 288.641 360.26 289.25C360.495 289.339 360.516 289.042 360.516 288.875C360.542 286.167 361.24 283.599 362.109 281.063C362.24 280.859 362.365 279.828 362.698 280.083C363.688 281.182 364.51 282.417 365.391 283.599C365.427 283.62 365.531 283.641 365.526 283.563C365.24 281.281 364.615 279.042 363.609 276.969C363.193 276.146 362.714 275.349 362.266 274.542C362.161 274.38 361.948 274.052 362.276 274.016C364.354 273.99 366.396 274.547 368.464 274.578C370.292 274.656 370.714 271.156 368.932 270.786C364.724 270.26 360.729 272.177 356.948 273.766C352.339 275.375 350.281 278.932 350.13 283.667C350.156 284.891 350.245 285.891 350.406 286.891ZM347.031 267.458C346.865 267.417 346.63 267.219 346.479 267.349C348.104 269.484 351.047 270.49 353.719 270.042C354.615 269.901 355.495 269.708 356.349 269.411C356.5 269.328 356.74 269.313 356.792 269.135C356.401 269.063 355.979 269.182 355.573 269.182C352.635 269.38 349.703 268.641 347.031 267.458ZM349.125 266.797C348.234 266.474 347.396 266.057 346.589 265.568C345.766 265.094 345.099 264.417 344.443 263.745C344.234 263.552 344.094 263.719 344.224 263.922C345.198 266.089 346.974 267.042 349.276 267.182C349.922 267.115 349.406 266.906 349.125 266.797ZM305.573 242.62C305.594 242.62 305.635 242.677 305.641 242.714C305.896 244.432 306.328 246.099 307.198 247.615C307.703 248.422 308.229 249.37 308.969 249.938C309.005 249.125 308.703 248.24 308.651 247.401C308.573 247.177 308.396 242.573 308.932 244C311.859 253.401 317.505 255.349 324.599 260.698C331.349 265.901 338.036 271.188 344.839 276.328C345.526 276.844 345.458 276.63 345.729 276.146C346.203 275.276 346.74 274.453 347.427 273.734C347.526 273.635 347.693 273.464 347.578 273.328C343.563 271.63 340.536 267.828 340.88 263.313C340.859 262.583 341.594 258.286 342.203 258.255C342.385 259.052 342.536 259.859 342.943 260.589C343.359 261.443 344.219 261.865 345.089 262.099C346.755 262.51 348.469 263.115 350.156 262.484C352.859 261.693 355.521 260.76 358.255 260.115C358.609 260.021 358.635 259.984 358.656 259.609C358.917 257.922 357.188 258.495 357.031 256.443C356.938 256.057 357.234 255.318 356.609 255.359C352.255 254.76 346.891 252.38 344.875 248.255C342.776 243.688 342.25 238.531 341.979 233.74C341.953 233.313 341.906 233.266 341.505 233.292C340.667 233.344 339.823 233.396 338.984 233.469C337.922 233.557 336.854 233.661 335.792 233.76C335.682 233.75 335.479 233.797 335.568 233.609C337.328 232.307 339.161 231.078 341.063 229.979C341.688 229.635 341.901 229.505 341.182 228.88C340.839 228.578 340.464 228.339 340.016 228.214C339.531 228.047 339.042 228.167 338.557 228.266C329.016 230.323 319.422 232.297 309.74 233.615C305.615 234.203 301.385 233.505 297.281 233.62C297.411 234.063 298.521 234.229 298.828 234.583C296.214 233.974 293.854 232.448 291.406 231.359C289.427 230.536 287.151 230.865 285.25 231.766C281.49 233.578 280.12 237.948 280.021 241.849C280.318 249.005 285.719 255.005 290.672 259.714C292.995 262.042 296.526 262.99 299.646 261.854C301.141 261.276 302.807 260.135 302.755 258.365C303.109 253.078 303.417 247.667 305.417 242.698C305.438 242.656 305.521 242.63 305.573 242.62Z" fill="white"/>
</g>
<path d="M297.302 254.203C295.927 253.865 294.599 253.349 293.172 253.25C290.333 252.995 288.182 250.615 287.536 247.938C286.677 245.083 289.724 243.88 290.854 241.661C291.24 241 291.516 240.302 291.625 239.536C291.818 238.13 290.922 237.26 290.083 236.844C288.911 236.219 287.62 237.042 286.823 237.911C283.703 241.547 284.281 247.906 287.026 251.609C287.526 252.234 288.089 252.807 288.635 253.391C288.88 253.703 289.307 253.896 289.464 254.266C285.302 252.135 282.391 247.182 282.25 242.521C282.187 238.182 284.703 231.828 290.047 233.823C292.146 234.578 293.458 236.453 294.495 238.323C295.911 241.438 298.276 244.526 298.104 248.078C297.906 249.406 298.635 250.516 299.031 251.729C299.401 253.036 298.901 254.516 297.302 254.203Z" fill="white"/>
<mask id="mask5_1_2" style="mask-type:luminance" maskUnits="userSpaceOnUse" x="162" y="400" width="325" height="123">
<path d="M162 400H486.325V522.382H162V400Z" fill="white"/>
</mask>
<g mask="url(#mask5_1_2)">
<g opacity="0.809998">
<path d="M173.893 485.107C173.913 475.515 173.933 465.923 173.953 456.331C170.015 455.284 166.077 454.049 162.139 452.613C164.362 463.303 166.586 473.931 168.809 484.495C166.539 494.805 164.269 505.051 161.999 515.231C175.874 519.845 189.749 521.947 203.622 522.179C193.713 510.853 183.803 498.575 173.893 485.107Z" fill="white"/>
<path d="M180.611 488.014C189.994 500.421 199.375 511.81 208.758 522.381C208.778 512.981 208.8 503.581 208.82 494.18C199.416 493.013 190.014 491.025 180.611 488.014Z" fill="white"/>
<path d="M470.77 472.253C373.088 438.647 275.407 517.739 177.724 484.266C177.771 463.034 177.819 441.801 177.866 420.569C275.548 453.935 373.231 374.842 470.911 408.558C470.864 429.789 470.818 451.021 470.77 472.253Z" fill="white"/>
<path d="M474.449 475.784L474.516 447.01C478.452 448.904 482.388 450.984 486.324 453.266C484.059 461.837 481.793 470.476 479.527 479.177C481.747 491.35 483.967 503.585 486.187 515.884C472.32 507.396 458.455 501.417 444.588 497.304C454.541 489.089 464.495 481.837 474.449 475.784Z" fill="white"/>
<path d="M467.515 473.917C458.099 480.313 448.68 487.731 439.263 495.973C439.283 486.579 439.305 477.186 439.325 467.791C448.721 468.947 458.119 470.922 467.515 473.917Z" fill="white"/>
</g>
</g>
<path d="M220.625 470.383C220.546 470.824 220.266 471.115 219.785 471.256C219.299 471.424 218.744 471.509 218.118 471.51C217.491 471.511 216.861 471.454 216.228 471.34C215.617 471.258 215.132 471.185 214.774 471.121C213.506 470.892 212.276 470.613 211.083 470.285C209.886 469.983 208.858 469.528 208.001 468.918C207.139 468.336 206.498 467.552 206.078 466.565C205.653 465.607 205.58 464.356 205.858 462.813C206.117 461.38 206.441 459.973 206.832 458.593C207.256 457.19 207.597 455.772 207.855 454.339C207.96 453.76 208.035 453.105 208.082 452.374C208.128 451.642 208.085 450.938 207.951 450.259C207.817 449.581 207.553 448.992 207.159 448.495C206.798 447.974 206.232 447.644 205.46 447.505C204.881 447.401 204.404 447.443 204.029 447.631C203.653 447.82 203.346 448.106 203.106 448.489C202.871 448.845 202.684 449.252 202.544 449.711C202.432 450.174 202.334 450.64 202.25 451.109C202.15 451.66 202.057 452.255 201.971 452.894C201.916 453.51 201.89 454.131 201.891 454.757C201.919 455.388 201.978 456.01 202.066 456.624C202.182 457.242 202.361 457.829 202.602 458.385C202.924 459.126 203.034 459.7 202.932 460.109C202.834 460.49 202.601 460.76 202.23 460.921C201.865 461.054 201.385 461.11 200.792 461.089C200.203 461.039 199.551 460.95 198.834 460.821C197.043 460.498 195.94 459.986 195.526 459.286C195.112 458.585 195.323 457.414 196.16 455.772C196.996 454.131 197.643 452.355 198.101 450.446C198.564 448.51 198.957 446.646 199.28 444.855C199.504 443.615 199.684 442.381 199.819 441.154C199.983 439.931 200.064 438.694 200.062 437.442C200.053 436.701 199.985 435.977 199.856 435.271C199.76 434.542 199.776 433.82 199.905 433.103C200.01 432.525 200.355 432.188 200.941 432.095C201.526 432.001 202.426 432.064 203.638 432.283C205.457 432.61 206.584 432.984 207.021 433.405C207.49 433.802 207.427 434.388 206.832 435.163C206.354 435.76 205.923 436.336 205.538 436.893C205.158 437.422 204.901 438.058 204.767 438.802C204.693 439.216 204.659 439.636 204.668 440.065C204.703 440.498 204.802 440.9 204.962 441.27C205.123 441.641 205.349 441.966 205.64 442.246C205.959 442.531 206.352 442.716 206.82 442.8C207.372 442.899 207.911 442.826 208.439 442.58C208.972 442.306 209.449 441.951 209.869 441.515C210.289 441.078 210.648 440.588 210.945 440.044C211.242 439.5 211.433 438.994 211.517 438.526C211.647 437.809 211.633 437.252 211.477 436.854C211.321 436.456 211.123 436.136 210.882 435.893C210.647 435.623 210.433 435.385 210.243 435.18C210.052 434.975 209.982 434.735 210.031 434.459C210.126 433.936 210.371 433.681 210.766 433.696C211.195 433.688 211.615 433.721 212.029 433.795C212.745 433.925 213.462 434.054 214.178 434.183C214.9 434.284 215.619 434.4 216.335 434.529C216.555 434.569 216.815 434.63 217.113 434.712C217.444 434.772 217.739 434.868 218 435C218.265 435.105 218.477 435.271 218.635 435.499C218.799 435.699 218.85 435.964 218.791 436.295C218.686 436.873 218.337 437.55 217.742 438.325C217.147 439.1 216.453 439.871 215.66 440.638C214.872 441.378 214.081 442.061 213.285 442.685C212.495 443.283 211.833 443.718 211.3 443.992C211.012 444.168 210.703 444.382 210.373 444.636C210.075 444.866 209.894 445.161 209.83 445.519C209.775 445.822 209.843 446.076 210.034 446.281C210.257 446.464 210.535 446.656 210.868 446.859C211.207 447.034 211.57 447.227 211.959 447.439C212.375 447.657 212.74 447.922 213.053 448.234C213.367 448.547 213.596 448.93 213.742 449.383C213.916 449.841 213.943 450.4 213.824 451.062C213.635 452.109 213.393 453.132 213.099 454.132C212.805 455.132 212.564 456.155 212.375 457.202C212.181 458.277 212.06 459.422 212.012 460.636C211.991 461.856 212.126 463.004 212.415 464.08C212.732 465.162 213.245 466.108 213.952 466.918C214.687 467.734 215.73 468.263 217.08 468.506C217.604 468.601 218.086 468.688 218.527 468.767C218.99 468.879 219.382 468.993 219.703 469.107C220.046 469.255 220.3 469.428 220.463 469.628C220.626 469.828 220.68 470.08 220.625 470.383Z" fill="black"/>
<path d="M235.361 459.486C235.282 460.266 235.162 461.028 235.002 461.772C234.87 462.518 234.635 463.17 234.297 463.726C233.959 464.283 233.479 464.713 232.857 465.015C232.263 465.321 231.479 465.424 230.504 465.325L220.141 464.272C219.445 464.202 218.848 463.986 218.349 463.626C217.879 463.269 217.675 462.783 217.737 462.171C217.805 461.502 218.019 460.919 218.38 460.421C218.74 459.922 219.007 459.373 219.18 458.771C219.637 457.326 219.973 455.812 220.191 454.23C220.435 452.651 220.634 451.109 220.787 449.604C220.923 448.267 221.029 446.941 221.107 445.626C221.184 444.311 221.192 442.989 221.13 441.66C221.097 441.151 221.045 440.695 220.973 440.294C220.901 439.892 220.811 439.531 220.703 439.211C220.626 438.865 220.561 438.535 220.508 438.22C220.459 437.877 220.454 437.511 220.493 437.121C220.567 436.397 220.811 435.929 221.227 435.718C221.673 435.482 222.09 435.397 222.477 435.465C223.087 435.555 223.754 435.637 224.478 435.71C225.203 435.784 225.927 435.858 226.651 435.931C227.403 436.008 228.141 436.083 228.866 436.156C229.59 436.23 230.245 436.296 230.83 436.356C231.47 436.421 232.083 436.483 232.668 436.542C233.284 436.577 233.838 436.661 234.331 436.796C234.824 436.93 235.225 437.14 235.534 437.425C235.87 437.712 236.066 438.14 236.121 438.709C236.168 439.079 236.172 439.586 236.135 440.23C236.129 440.848 236.091 441.492 236.023 442.16C235.958 442.801 235.856 443.396 235.716 443.944C235.603 444.496 235.452 444.875 235.262 445.08C235.126 445.32 234.904 445.424 234.597 445.393C234.375 445.37 234.162 445.109 233.959 444.61C233.76 444.083 233.493 443.522 233.16 442.925C232.829 442.3 232.395 441.721 231.858 441.188C231.324 440.628 230.612 440.302 229.72 440.211C228.662 440.104 227.772 440.407 227.052 441.122C226.36 441.84 225.946 442.867 225.811 444.205C225.712 445.18 225.82 446.049 226.137 446.813C226.481 447.58 227.043 448.003 227.823 448.082C228.241 448.124 228.599 448.062 228.897 447.895C229.199 447.701 229.459 447.488 229.68 447.257C229.903 446.999 230.108 446.78 230.295 446.602C230.485 446.396 230.663 446.302 230.831 446.319C231.053 446.341 231.215 446.414 231.315 446.537C231.415 446.66 231.471 446.806 231.482 446.976C231.52 447.149 231.53 447.333 231.51 447.528C231.493 447.695 231.477 447.848 231.463 447.987L231.039 452.166C231.013 452.416 230.958 452.678 230.874 452.951C230.818 453.227 230.736 453.486 230.627 453.728C230.52 453.942 230.389 454.126 230.233 454.279C230.077 454.432 229.901 454.499 229.706 454.479C229.288 454.436 229.002 454.21 228.846 453.801C228.694 453.363 228.544 452.897 228.397 452.404C228.278 451.913 228.099 451.459 227.86 451.041C227.624 450.595 227.227 450.343 226.67 450.287C226.085 450.227 225.656 450.437 225.382 450.916C225.136 451.397 224.972 452.042 224.89 452.85C224.822 453.518 224.807 454.22 224.845 454.956C224.886 455.664 225.029 456.326 225.276 456.942C225.523 457.558 225.893 458.074 226.386 458.49C226.878 458.906 227.542 459.156 228.378 459.241C229.13 459.317 229.757 459.24 230.259 459.01C230.764 458.752 231.192 458.415 231.544 458.001C231.895 457.586 232.194 457.138 232.44 456.656C232.689 456.147 232.919 455.678 233.132 455.249C233.372 454.823 233.618 454.482 233.869 454.226C234.123 453.943 234.417 453.818 234.751 453.852C235.002 453.877 235.176 454.106 235.273 454.538C235.4 454.945 235.476 455.445 235.5 456.039C235.527 456.604 235.522 457.209 235.485 457.852C235.45 458.468 235.409 459.013 235.361 459.486Z" fill="black"/>
<path d="M255.003 458.556C254.956 459.871 254.675 461.052 254.161 462.098C253.675 463.145 253.012 464.032 252.173 464.758C251.336 465.456 250.35 465.995 249.215 466.374C248.11 466.726 246.913 466.879 245.626 466.833C244.899 466.807 244.3 466.701 243.831 466.516C243.36 466.359 242.859 466.271 242.327 466.251C241.795 466.232 241.385 466.344 241.096 466.585C240.835 466.828 240.602 467.086 240.396 467.359C240.217 467.66 240.011 467.933 239.778 468.177C239.545 468.421 239.219 468.535 238.799 468.52C238.407 468.506 238.106 468.313 237.895 467.941C237.684 467.597 237.534 467.087 237.446 466.411C237.385 465.765 237.358 464.979 237.363 464.055C237.397 463.132 237.434 462.096 237.475 460.949C237.511 459.97 237.544 459.046 237.575 458.179C237.636 457.284 237.72 456.503 237.828 455.834C237.964 455.167 238.137 454.641 238.347 454.256C238.585 453.872 238.914 453.688 239.334 453.703C239.698 453.716 239.972 453.88 240.157 454.195C240.341 454.51 240.495 454.908 240.618 455.389C240.77 455.843 240.92 456.338 241.069 456.876C241.217 457.414 241.437 457.926 241.728 458.413C242.019 458.872 242.411 459.264 242.904 459.59C243.424 459.917 244.09 460.095 244.902 460.124C245.825 460.158 246.589 459.947 247.194 459.493C247.827 459.039 248.161 458.337 248.195 457.385C248.219 456.714 248.004 456.076 247.55 455.471C247.095 454.866 246.515 454.257 245.808 453.643C245.13 453.03 244.382 452.401 243.565 451.755C242.777 451.082 242.033 450.354 241.332 449.573C240.66 448.792 240.103 447.917 239.662 446.949C239.22 445.98 239.022 444.88 239.067 443.649C239.095 442.866 239.249 442.073 239.531 441.27C239.84 440.469 240.272 439.742 240.828 439.09C241.412 438.438 242.103 437.917 242.902 437.526C243.729 437.135 244.66 436.959 245.695 436.996C246.199 437.014 246.616 437.085 246.948 437.209C247.308 437.334 247.624 437.486 247.898 437.664C248.201 437.815 248.476 437.951 248.724 438.072C249 438.194 249.278 438.26 249.557 438.27C250.061 438.288 250.415 438.189 250.619 437.972C250.824 437.727 250.987 437.467 251.109 437.191C251.259 436.917 251.422 436.67 251.598 436.453C251.775 436.207 252.102 436.092 252.577 436.11C252.997 436.125 253.299 436.29 253.484 436.605C253.698 436.893 253.838 437.29 253.903 437.797C253.969 438.303 253.989 438.906 253.964 439.606C253.939 440.306 253.912 441.061 253.882 441.872C253.856 442.6 253.817 443.285 253.766 443.928C253.744 444.543 253.668 445.087 253.539 445.559C253.439 446.003 253.286 446.362 253.08 446.635C252.903 446.88 252.647 446.997 252.311 446.985C251.583 446.959 251.103 446.689 250.869 446.177C250.635 445.664 250.446 445.097 250.3 444.475C250.154 443.853 249.951 443.286 249.689 442.772C249.427 442.258 248.919 441.987 248.163 441.96C247.436 441.934 246.854 442.137 246.418 442.57C246.01 443.003 245.793 443.584 245.767 444.311C245.742 445.011 245.956 445.663 246.411 446.268C246.865 446.873 247.446 447.482 248.152 448.096C248.858 448.71 249.62 449.354 250.436 450.027C251.252 450.701 252.01 451.443 252.709 452.253C253.408 453.063 253.977 453.98 254.417 455.004C254.856 456.029 255.052 457.213 255.003 458.556Z" fill="black"/>
<path d="M285.864 470.459C285.881 470.962 285.628 471.349 285.105 471.619C284.583 471.917 283.974 472.12 283.277 472.228C282.609 472.363 281.926 472.442 281.226 472.466C280.526 472.49 280.009 472.508 279.673 472.519C278.246 472.568 276.984 472.541 275.888 472.439C274.793 472.364 273.86 472.13 273.09 471.736C272.321 471.37 271.728 470.816 271.311 470.074C270.921 469.331 270.705 468.344 270.663 467.112C270.605 465.433 270.661 463.792 270.831 462.19C270.999 460.559 271.055 458.904 270.997 457.225C270.956 456.022 270.661 455.177 270.112 454.692C269.563 454.206 268.687 453.984 267.484 454.025C266.84 454.047 266.326 454.177 265.942 454.414C265.558 454.651 265.261 454.97 265.05 455.369C264.868 455.768 264.743 456.22 264.676 456.727C264.638 457.232 264.628 457.765 264.647 458.325C264.681 459.304 264.812 460.266 265.04 461.211C265.268 462.156 265.677 463.038 266.265 463.859C266.941 464.788 266.964 465.446 266.333 465.832C265.729 466.216 264.616 466.437 262.993 466.492C261.986 466.526 261.187 466.526 260.598 466.49C260.035 466.425 259.598 466.328 259.285 466.199C259 466.068 258.813 465.921 258.724 465.756C258.661 465.562 258.625 465.339 258.617 465.087C258.597 464.499 258.688 463.894 258.891 463.27C259.121 462.618 259.295 461.996 259.415 461.403C259.751 459.767 259.946 458.079 259.999 456.34C260.079 454.601 260.091 452.891 260.033 451.212C260.007 450.457 259.981 449.673 259.953 448.862C259.953 448.049 259.912 447.252 259.829 446.47C259.745 445.661 259.621 444.881 259.455 444.13C259.288 443.351 259.039 442.617 258.707 441.928C258.407 441.35 258.194 440.853 258.068 440.437C257.941 439.993 257.872 439.617 257.861 439.31C257.841 438.722 258.094 438.321 258.619 438.107C259.171 437.892 260.008 437.765 261.127 437.727C262.61 437.676 263.62 437.726 264.158 437.875C264.694 437.997 264.971 438.296 264.987 438.772C264.995 438.996 264.961 439.235 264.885 439.49C264.837 439.715 264.764 440.04 264.667 440.464C264.423 441.537 264.293 442.648 264.276 443.797C264.288 444.945 264.312 446.065 264.349 447.156C264.364 447.604 264.461 447.965 264.638 448.239C264.816 448.513 265.047 448.729 265.333 448.888C265.618 449.018 265.943 449.105 266.308 449.149C266.674 449.192 267.039 449.208 267.403 449.195C268.41 449.161 269.199 448.896 269.771 448.4C270.342 447.904 270.61 447.124 270.573 446.061C270.556 445.557 270.538 445.026 270.519 444.466C270.528 443.905 270.495 443.36 270.421 442.83C270.374 442.272 270.258 441.743 270.072 441.245C269.887 440.747 269.592 440.309 269.187 439.931C268.869 439.634 268.594 439.377 268.362 439.161C268.158 438.915 268.051 438.653 268.041 438.373C268.028 437.981 268.313 437.733 268.898 437.629C269.51 437.496 270.613 437.403 272.209 437.348C273.02 437.32 273.72 437.31 274.309 437.318C274.896 437.298 275.348 437.395 275.663 437.608C276.007 437.82 276.216 438.206 276.291 438.763C276.365 439.293 276.281 440.108 276.039 441.209C275.82 442.197 275.675 443.281 275.604 444.46C275.532 445.639 275.489 446.845 275.475 448.079C275.488 449.283 275.516 450.487 275.557 451.69C275.597 452.865 275.634 453.957 275.669 454.964C275.709 456.139 275.763 457.328 275.833 458.531C275.901 459.705 276.025 460.877 276.205 462.048C276.35 462.995 276.536 463.942 276.764 464.886C277.02 465.802 277.37 466.617 277.815 467.33C278.26 468.071 278.854 468.653 279.597 469.076C280.34 469.499 281.299 469.69 282.475 469.65C283.51 469.615 284.323 469.629 284.913 469.693C285.532 469.756 285.849 470.011 285.864 470.459Z" fill="black"/>
<path d="M290.271 445.857C290.233 445.494 290.145 445.053 290.007 444.533C289.869 444.012 289.663 443.527 289.392 443.076C289.145 442.595 288.837 442.205 288.468 441.905C288.124 441.575 287.716 441.434 287.242 441.483C286.657 441.544 286.21 441.843 285.9 442.382C285.589 442.921 285.371 443.535 285.246 444.223C285.12 444.912 285.051 445.609 285.04 446.314C285.056 447.016 285.085 447.562 285.125 447.952C285.206 448.731 285.466 449.338 285.905 449.771C286.369 450.173 287.004 450.333 287.812 450.249C288.453 450.183 288.942 450.019 289.281 449.759C289.645 449.468 289.906 449.131 290.063 448.749C290.246 448.336 290.34 447.89 290.347 447.411C290.351 446.904 290.325 446.386 290.271 445.857ZM302.312 468.762C302.341 469.041 302.155 469.285 301.755 469.495C301.385 469.731 300.941 469.931 300.424 470.098C299.934 470.261 299.427 470.398 298.904 470.508C298.408 470.616 298.049 470.681 297.826 470.704C297.241 470.765 296.585 470.819 295.858 470.866C295.159 470.91 294.49 470.839 293.852 470.652C293.213 470.464 292.654 470.1 292.176 469.558C291.728 469.042 291.45 468.254 291.34 467.196C291.286 466.667 291.271 466.119 291.297 465.554C291.351 464.985 291.383 464.348 291.395 463.643C291.431 462.908 291.445 462.09 291.436 461.19C291.452 460.259 291.396 459.167 291.266 457.914C291.22 457.469 291.118 457.029 290.96 456.595C290.831 456.158 290.623 455.785 290.338 455.477C290.078 455.138 289.756 454.89 289.374 454.732C288.989 454.547 288.546 454.48 288.044 454.532C287.153 454.624 286.478 455.032 286.018 455.755C285.558 456.478 285.371 457.258 285.457 458.093C285.532 458.817 285.687 459.491 285.92 460.114C286.178 460.707 286.433 461.258 286.682 461.767C286.957 462.245 287.197 462.656 287.401 463.001C287.634 463.343 287.762 463.625 287.785 463.848C287.848 464.461 287.525 464.874 286.815 465.089C286.13 465.272 285.175 465.427 283.95 465.554C282.836 465.67 281.911 465.709 281.175 465.673C280.437 465.608 280.037 465.284 279.977 464.699C279.91 464.058 280.034 463.215 280.348 462.169C280.662 461.123 280.954 459.869 281.225 458.405C281.595 456.537 281.854 454.694 282.004 452.877C282.178 451.03 282.169 449.173 281.976 447.307C281.863 446.22 281.683 445.155 281.434 444.111C281.182 443.04 280.727 442.045 280.069 441.128C279.714 440.686 279.42 440.295 279.188 439.953C278.983 439.608 278.856 439.199 278.807 438.725C278.738 438.057 278.916 437.602 279.341 437.361C279.792 437.089 280.365 436.917 281.061 436.845L290.67 435.85C291.478 435.767 292.119 435.841 292.593 436.073C293.093 436.275 293.386 436.793 293.472 437.629C293.53 438.186 293.511 438.821 293.416 439.535C293.318 440.221 293.307 440.926 293.382 441.65L294.018 447.791C294.093 448.515 294.185 449.406 294.295 450.465C294.404 451.523 294.535 452.649 294.687 453.844C294.839 455.039 295.023 456.272 295.239 457.545C295.483 458.815 295.748 460.012 296.033 461.136C296.318 462.261 296.648 463.268 297.022 464.159C297.395 465.049 297.818 465.737 298.291 466.223C298.859 466.811 299.38 467.222 299.854 467.454C300.357 467.684 300.782 467.851 301.131 467.955C301.479 468.06 301.755 468.144 301.959 468.207C302.165 468.299 302.283 468.484 302.312 468.762Z" fill="black"/>
<path d="M313.019 432.899C313.168 433.754 313.243 434.594 313.244 435.418C313.24 436.214 313.195 437.018 313.109 437.829C313.046 438.607 312.971 439.402 312.885 440.212C312.794 440.996 312.737 441.815 312.716 442.672C312.638 445.328 312.674 448.065 312.823 450.881C312.995 453.665 313.309 456.367 313.765 458.987C313.88 459.65 313.734 460.201 313.328 460.641C312.949 461.076 312.456 461.432 311.851 461.708C311.24 461.956 310.59 462.14 309.901 462.26C309.243 462.403 308.694 462.513 308.253 462.59C306.57 462.883 305.208 462.978 304.167 462.875C303.149 462.739 302.563 462.23 302.409 461.347C302.304 460.74 302.257 460.308 302.269 460.05C302.281 459.792 302.285 459.493 302.283 459.153C302.308 458.807 302.298 458.34 302.252 457.751C302.207 457.162 302.073 456.233 301.853 454.964C301.593 453.475 301.279 452.08 300.911 450.78C300.538 449.452 300.128 448.159 299.682 446.901C299.231 445.615 298.724 444.339 298.163 443.073C297.624 441.774 297.044 440.397 296.421 438.942C296.153 438.221 296.041 437.658 296.084 437.253C296.123 436.82 296.279 436.494 296.554 436.276C296.824 436.03 297.193 435.866 297.662 435.785C298.126 435.676 298.62 435.575 299.144 435.484C299.613 435.403 300.069 435.323 300.51 435.247C300.979 435.165 301.386 435.137 301.732 435.162C302.1 435.155 302.397 435.231 302.624 435.39C302.873 435.517 303.029 435.76 303.092 436.119C303.173 436.588 303.188 436.997 303.135 437.348C303.11 437.693 303.073 438.055 303.025 438.432C302.973 438.783 302.932 439.202 302.903 439.69C302.897 440.146 302.959 440.746 303.089 441.491C303.132 441.739 303.204 442.153 303.305 442.732C303.401 443.284 303.525 443.916 303.677 444.628C303.853 445.308 304.035 446.03 304.225 446.793C304.442 447.551 304.688 448.232 304.964 448.838C305.24 449.444 305.538 449.932 305.859 450.302C306.206 450.668 306.573 450.817 306.96 450.75C307.373 450.678 307.679 450.312 307.877 449.653C308.075 448.993 308.202 448.175 308.26 447.199C308.345 446.218 308.36 445.163 308.306 444.036C308.247 442.881 308.171 441.786 308.076 440.751C308.004 439.683 307.909 438.733 307.793 437.901C307.676 437.069 307.592 436.501 307.539 436.197C307.366 435.204 307.141 434.32 306.864 433.544C306.615 432.763 306.235 432.133 305.725 431.653C305.238 431.141 304.598 430.812 303.805 430.666C303.008 430.492 301.995 430.554 300.768 430.853C300.52 430.896 300.18 430.984 299.748 431.116C299.344 431.243 298.933 431.329 298.514 431.373C298.123 431.413 297.764 431.39 297.437 431.305C297.109 431.22 296.912 430.984 296.845 430.598C296.758 430.102 297.236 429.663 298.278 429.283C299.343 428.87 301.103 428.45 303.559 428.023C304.552 427.85 305.564 427.788 306.595 427.835C307.622 427.856 308.579 428.044 309.465 428.402C310.347 428.731 311.108 429.267 311.748 430.008C312.384 430.722 312.807 431.685 313.019 432.899Z" fill="black"/>
<path d="M327.453 439.046C327.362 438.693 327.21 438.27 326.996 437.776C326.782 437.281 326.507 436.832 326.172 436.426C325.856 435.987 325.494 435.647 325.085 435.405C324.696 435.129 324.271 435.05 323.81 435.169C323.241 435.315 322.842 435.678 322.615 436.257C322.388 436.836 322.264 437.475 322.241 438.174C322.219 438.874 322.254 439.573 322.347 440.272C322.467 440.964 322.576 441.5 322.674 441.88C322.869 442.639 323.216 443.2 323.714 443.564C324.232 443.893 324.885 443.956 325.671 443.754C326.295 443.594 326.755 443.36 327.052 443.052C327.369 442.71 327.577 442.339 327.676 441.937C327.795 441.502 327.823 441.047 327.758 440.572C327.687 440.07 327.585 439.561 327.453 439.046ZM342.751 459.917C342.821 460.188 342.673 460.458 342.309 460.725C341.978 461.012 341.569 461.277 341.081 461.518C340.621 461.752 340.14 461.962 339.639 462.149C339.165 462.328 338.819 462.446 338.602 462.502C338.033 462.648 337.392 462.799 336.68 462.953C335.995 463.1 335.323 463.129 334.664 463.038C334.004 462.947 333.398 462.67 332.845 462.205C332.326 461.76 331.934 461.022 331.669 459.992C331.536 459.477 331.441 458.937 331.383 458.374C331.352 457.804 331.29 457.169 331.197 456.471C331.124 455.738 331.016 454.927 330.875 454.038C330.753 453.115 330.535 452.044 330.221 450.823C330.11 450.39 329.944 449.97 329.724 449.564C329.531 449.151 329.271 448.813 328.943 448.55C328.635 448.254 328.281 448.056 327.879 447.956C327.471 447.83 327.023 447.83 326.535 447.955C325.667 448.179 325.059 448.682 324.711 449.465C324.364 450.248 324.294 451.047 324.503 451.86C324.685 452.565 324.937 453.209 325.26 453.791C325.603 454.339 325.936 454.846 326.259 455.312C326.601 455.744 326.899 456.116 327.152 456.427C327.433 456.73 327.601 456.991 327.657 457.207C327.81 457.804 327.552 458.261 326.882 458.578C326.232 458.861 325.31 459.155 324.117 459.462C323.032 459.741 322.123 459.917 321.39 459.99C320.65 460.036 320.207 459.774 320.061 459.204C319.9 458.581 319.898 457.728 320.054 456.648C320.209 455.567 320.313 454.283 320.364 452.795C320.453 450.893 320.437 449.032 320.316 447.213C320.215 445.36 319.931 443.525 319.464 441.708C319.192 440.65 318.856 439.623 318.455 438.628C318.047 437.605 317.45 436.689 316.664 435.879C316.247 435.495 315.898 435.151 315.618 434.847C315.365 434.537 315.179 434.151 315.06 433.69C314.893 433.039 315.001 432.563 315.387 432.262C315.792 431.926 316.333 431.671 317.011 431.497L326.367 429.091C327.153 428.888 327.798 428.867 328.302 429.027C328.826 429.152 329.192 429.622 329.401 430.435C329.541 430.978 329.616 431.609 329.628 432.328C329.633 433.021 329.726 433.72 329.907 434.425L331.445 440.404C331.626 441.109 331.849 441.977 332.114 443.008C332.379 444.038 332.675 445.133 333.002 446.292C333.329 447.451 333.694 448.644 334.096 449.87C334.525 451.09 334.964 452.235 335.413 453.305C335.862 454.375 336.337 455.322 336.838 456.147C337.339 456.972 337.86 457.59 338.399 458.001C339.047 458.499 339.623 458.828 340.127 458.988C340.658 459.14 341.103 459.242 341.464 459.294C341.824 459.346 342.109 459.388 342.32 459.421C342.538 459.481 342.682 459.646 342.751 459.917Z" fill="black"/>
<path d="M367.535 442.508C367.888 443.776 367.978 444.986 367.805 446.138C367.659 447.284 367.296 448.329 366.716 449.275C366.129 450.194 365.352 451.006 364.386 451.711C363.439 452.382 362.345 452.89 361.105 453.235C360.403 453.431 359.801 453.511 359.297 453.477C358.801 453.47 358.297 453.537 357.784 453.68C357.272 453.823 356.914 454.053 356.712 454.371C356.537 454.681 356.393 454.997 356.279 455.32C356.2 455.662 356.086 455.984 355.938 456.287C355.789 456.59 355.513 456.797 355.108 456.91C354.731 457.015 354.385 456.922 354.072 456.632C353.766 456.368 353.469 455.928 353.181 455.31C352.927 454.712 352.663 453.972 352.388 453.089C352.14 452.199 351.863 451.201 351.555 450.095C351.292 449.151 351.044 448.261 350.811 447.425C350.598 446.554 350.442 445.784 350.342 445.114C350.27 444.437 350.276 443.883 350.359 443.453C350.47 443.015 350.728 442.74 351.132 442.627C351.483 442.529 351.794 442.603 352.066 442.847C352.337 443.091 352.604 443.424 352.866 443.845C353.148 444.231 353.442 444.658 353.746 445.126C354.051 445.593 354.415 446.015 354.84 446.391C355.256 446.74 355.749 446.995 356.317 447.157C356.912 447.311 357.601 447.279 358.383 447.061C359.273 446.813 359.938 446.381 360.377 445.765C360.842 445.141 360.948 444.371 360.692 443.454C360.512 442.806 360.114 442.263 359.498 441.824C358.881 441.385 358.144 440.98 357.285 440.609C356.453 440.23 355.549 439.857 354.575 439.489C353.62 439.086 352.69 438.618 351.786 438.085C350.909 437.545 350.114 436.88 349.4 436.09C348.686 435.301 348.164 434.313 347.833 433.126C347.623 432.37 347.531 431.568 347.556 430.718C347.608 429.861 347.8 429.037 348.132 428.247C348.491 427.449 348.992 426.743 349.635 426.128C350.305 425.506 351.138 425.056 352.136 424.778C352.622 424.643 353.042 424.584 353.395 424.602C353.776 424.612 354.124 424.661 354.439 424.747C354.773 424.8 355.076 424.846 355.349 424.886C355.649 424.919 355.934 424.898 356.203 424.823C356.689 424.688 356.996 424.486 357.125 424.218C357.246 423.922 357.323 423.625 357.356 423.325C357.416 423.018 357.497 422.734 357.598 422.473C357.693 422.185 357.969 421.977 358.428 421.85C358.832 421.737 359.17 421.803 359.442 422.047C359.732 422.256 359.986 422.593 360.202 423.056C360.418 423.519 360.62 424.088 360.808 424.762C360.995 425.436 361.198 426.165 361.416 426.947C361.611 427.648 361.782 428.313 361.927 428.941C362.093 429.534 362.185 430.075 362.205 430.564C362.244 431.018 362.207 431.406 362.093 431.728C361.999 432.016 361.79 432.205 361.466 432.295C360.765 432.49 360.225 432.379 359.847 431.961C359.469 431.543 359.117 431.06 358.79 430.512C358.463 429.963 358.097 429.484 357.692 429.073C357.287 428.663 356.72 428.559 355.992 428.762C355.291 428.957 354.798 429.327 354.513 429.871C354.256 430.408 354.225 431.027 354.42 431.728C354.608 432.402 355.01 432.959 355.626 433.398C356.242 433.837 356.98 434.242 357.839 434.613C358.698 434.984 359.618 435.367 360.6 435.762C361.582 436.158 362.529 436.635 363.441 437.195C364.352 437.755 365.172 438.457 365.901 439.3C366.63 440.144 367.175 441.213 367.535 442.508Z" fill="black"/>
<path d="M378.325 429.185C378.256 428.828 378.13 428.396 377.947 427.889C377.764 427.383 377.517 426.917 377.207 426.492C376.919 426.034 376.578 425.672 376.185 425.406C375.813 425.107 375.394 425.003 374.927 425.093C374.349 425.204 373.93 425.542 373.668 426.106C373.406 426.67 373.242 427.3 373.177 427.997C373.112 428.694 373.104 429.394 373.155 430.097C373.232 430.795 373.308 431.337 373.382 431.721C373.531 432.491 373.843 433.073 374.318 433.466C374.815 433.826 375.462 433.929 376.26 433.775C376.892 433.653 377.366 433.448 377.681 433.159C378.018 432.837 378.248 432.479 378.372 432.085C378.517 431.657 378.573 431.205 378.537 430.727C378.497 430.221 378.426 429.707 378.325 429.185ZM392.321 450.952C392.374 451.227 392.21 451.486 391.83 451.731C391.482 451.998 391.057 452.236 390.556 452.447C390.083 452.652 389.59 452.833 389.078 452.989C388.594 453.139 388.242 453.236 388.022 453.278C387.444 453.39 386.796 453.501 386.076 453.611C385.383 453.716 384.71 453.703 384.058 453.573C383.405 453.442 382.817 453.128 382.293 452.63C381.802 452.154 381.456 451.394 381.254 450.349C381.154 449.827 381.091 449.283 381.068 448.717C381.072 448.146 381.048 447.509 380.998 446.806C380.97 446.07 380.913 445.254 380.825 444.358C380.76 443.43 380.608 442.347 380.37 441.11C380.285 440.67 380.145 440.24 379.95 439.822C379.783 439.398 379.544 439.045 379.232 438.763C378.944 438.448 378.602 438.228 378.207 438.105C377.807 437.954 377.36 437.926 376.865 438.022C375.985 438.191 375.348 438.657 374.953 439.417C374.558 440.178 374.44 440.971 374.599 441.795C374.737 442.51 374.949 443.168 375.236 443.768C375.546 444.336 375.847 444.863 376.14 445.348C376.456 445.8 376.73 446.189 376.964 446.515C377.226 446.835 377.377 447.105 377.42 447.325C377.537 447.93 377.251 448.37 376.563 448.645C375.896 448.888 374.959 449.126 373.749 449.359C372.649 449.572 371.731 449.692 370.995 449.72C370.254 449.72 369.827 449.432 369.716 448.854C369.594 448.222 369.644 447.371 369.865 446.302C370.087 445.233 370.268 443.957 370.41 442.475C370.615 440.582 370.713 438.724 370.703 436.901C370.716 435.045 370.544 433.196 370.189 431.354C369.982 430.282 369.709 429.236 369.37 428.218C369.026 427.172 368.486 426.222 367.75 425.365C367.358 424.956 367.031 424.592 366.769 424.271C366.535 423.946 366.373 423.549 366.283 423.082C366.156 422.422 366.293 421.954 366.696 421.676C367.121 421.366 367.677 421.145 368.365 421.012L377.85 419.182C378.647 419.028 379.292 419.046 379.785 419.236C380.3 419.394 380.637 419.885 380.796 420.709C380.902 421.259 380.939 421.894 380.907 422.613C380.869 423.304 380.92 424.008 381.057 424.723L382.227 430.785C382.365 431.5 382.535 432.379 382.736 433.424C382.938 434.469 383.167 435.58 383.422 436.756C383.678 437.933 383.969 439.146 384.295 440.395C384.649 441.638 385.018 442.808 385.4 443.903C385.783 444.999 386.199 445.973 386.649 446.828C387.099 447.682 387.58 448.33 388.094 448.773C388.71 449.31 389.265 449.673 389.758 449.863C390.279 450.048 390.717 450.177 391.074 450.251C391.43 450.325 391.712 450.385 391.921 450.43C392.134 450.503 392.268 450.677 392.321 450.952Z" fill="black"/>
<path d="M404.866 438.588C404.996 439.644 405.052 440.554 405.034 441.318C405.011 442.054 404.849 442.681 404.546 443.198C404.267 443.684 403.822 444.077 403.21 444.378C402.623 444.648 401.829 444.845 400.829 444.968L393.45 445.877C392.394 446.008 391.467 445.924 390.669 445.628C389.871 445.331 389.417 444.738 389.307 443.849C389.239 443.293 389.25 442.812 389.341 442.406C389.432 442 389.537 441.592 389.655 441.183C389.771 440.745 389.883 440.28 389.991 439.787C390.096 439.266 390.132 438.641 390.099 437.912C390.059 436.901 390.001 435.977 389.926 435.14C389.876 434.272 389.813 433.419 389.738 432.582C389.663 431.745 389.572 430.895 389.466 430.034C389.388 429.169 389.287 428.236 389.163 427.236C389.061 426.402 388.93 425.459 388.772 424.407C388.614 423.354 388.387 422.31 388.09 421.274C387.821 420.236 387.46 419.25 387.006 418.319C386.553 417.387 385.978 416.612 385.281 415.993C384.93 415.669 384.533 415.422 384.089 415.251C383.645 415.08 383.192 414.952 382.73 414.868C382.265 414.756 381.806 414.7 381.355 414.699C380.9 414.671 380.504 414.663 380.167 414.676C380 414.697 379.804 414.707 379.578 414.707C379.325 414.71 379.084 414.697 378.854 414.669C378.622 414.613 378.427 414.524 378.271 414.402C378.087 414.284 377.98 414.1 377.949 413.849C377.894 413.405 378.123 413.08 378.633 412.876C379.116 412.676 379.803 412.521 380.692 412.411L385.194 411.856C386.139 411.74 387.023 411.701 387.846 411.741C388.669 411.78 389.396 411.959 390.028 412.276C390.659 412.593 391.184 413.078 391.604 413.732C392.019 414.358 392.292 415.199 392.422 416.255C392.789 419.228 393.081 422.281 393.298 425.414C393.511 428.52 393.801 431.559 394.168 434.532C394.233 435.06 394.353 435.582 394.53 436.096C394.73 436.579 394.98 437 395.278 437.358C395.576 437.716 395.935 437.996 396.355 438.198C396.802 438.397 397.318 438.461 397.902 438.389C398.485 438.317 398.97 438.13 399.356 437.828C399.742 437.527 400.062 437.149 400.316 436.694C400.595 436.209 400.797 435.676 400.923 435.096C401.074 434.485 401.193 433.85 401.281 433.19C401.313 432.989 401.334 432.704 401.345 432.336C401.38 431.937 401.431 431.549 401.498 431.174C401.592 430.796 401.721 430.47 401.885 430.196C402.045 429.894 402.264 429.726 402.542 429.691C402.959 429.64 403.27 429.757 403.474 430.042C403.679 430.327 403.815 430.748 403.884 431.303C404.044 432.835 404.219 434.253 404.408 435.555C404.621 436.827 404.774 437.838 404.866 438.588Z" fill="black"/>
<path d="M423.485 428.794C423.621 431.17 423.574 433.304 423.346 435.197C423.144 437.059 422.717 438.668 422.065 440.023C421.44 441.349 420.588 442.394 419.509 443.156C418.43 443.891 417.093 444.304 415.499 444.395C413.906 444.486 412.502 444.202 411.286 443.542C410.097 442.852 409.092 441.956 408.272 440.853C407.478 439.721 406.858 438.438 406.411 437.005C405.993 435.571 405.743 434.141 405.662 432.715C405.529 430.395 405.547 428.248 405.714 426.275C405.91 424.301 406.393 422.45 407.164 420.724C407.341 420.377 407.42 420.05 407.403 419.742C407.385 419.435 407.302 419.201 407.152 419.042C407.003 418.882 406.826 418.738 406.623 418.609C406.446 418.451 406.282 418.292 406.133 418.132C405.982 417.945 405.897 417.683 405.878 417.348C405.846 416.788 406.142 416.337 406.768 415.993C407.392 415.62 408.105 415.341 408.908 415.155C409.737 414.94 410.542 414.795 411.323 414.723C412.13 414.621 412.688 414.561 412.995 414.543C415.064 414.425 416.754 414.791 418.064 415.642C419.401 416.463 420.446 417.567 421.198 418.955C421.979 420.34 422.531 421.907 422.855 423.656C423.179 425.404 423.389 427.117 423.485 428.794ZM417.97 428.731C417.921 427.864 417.815 426.987 417.652 426.098C417.487 425.182 417.244 424.355 416.921 423.616C416.626 422.876 416.256 422.28 415.809 421.829C415.363 421.377 414.818 421.17 414.175 421.207C413.588 421.24 413.085 421.507 412.664 422.008C412.272 422.507 411.959 423.156 411.724 423.955C411.517 424.752 411.372 425.644 411.288 426.63C411.232 427.615 411.233 428.611 411.29 429.617C411.338 430.456 411.442 431.291 411.601 432.123C411.789 432.954 412.029 433.711 412.32 434.396C412.64 435.079 413.022 435.632 413.467 436.055C413.938 436.449 414.467 436.629 415.054 436.596C415.697 436.559 416.216 436.319 416.612 435.876C417.005 435.404 417.308 434.812 417.52 434.099C417.758 433.356 417.906 432.52 417.965 431.591C418.025 430.663 418.026 429.709 417.97 428.731Z" fill="black"/>
<path d="M449.491 415.882C449.483 416.302 449.405 416.693 449.259 417.054C449.14 417.416 448.992 417.805 448.816 418.222C448.641 418.61 448.464 419.069 448.286 419.598C448.109 420.099 447.971 420.726 447.872 421.48C447.608 423.576 447.374 425.616 447.168 427.6C446.962 429.585 446.839 431.627 446.8 433.726C446.778 434.846 446.797 436.051 446.857 437.34C446.945 438.63 446.978 439.821 446.957 440.912C446.942 441.696 446.847 442.269 446.673 442.629C446.498 442.99 446.255 443.224 445.945 443.33C445.663 443.436 445.313 443.458 444.894 443.394C444.502 443.358 444.069 443.336 443.593 443.327C442.893 443.314 442.277 443.316 441.744 443.334C441.239 443.38 440.808 443.26 440.449 442.973C440.09 442.686 439.817 442.331 439.629 441.908C439.441 441.484 439.241 440.948 439.029 440.3C438.845 439.708 438.686 439.187 438.555 438.737C438.424 438.286 438.306 437.85 438.202 437.428C438.098 437.006 437.98 436.583 437.848 436.161C437.744 435.711 437.614 435.19 437.457 434.599C437.405 434.43 437.325 434.204 437.218 433.922C437.139 433.641 437.033 433.373 436.897 433.118C436.763 432.836 436.585 432.594 436.365 432.394C436.173 432.194 435.937 432.092 435.657 432.086C435.321 432.08 435.053 432.173 434.853 432.365C434.682 432.558 434.537 432.821 434.418 433.155C434.3 433.461 434.223 433.823 434.188 434.243C434.18 434.663 434.172 435.083 434.164 435.503C434.178 436.203 434.194 436.861 434.21 437.478C434.254 438.095 434.271 438.711 434.259 439.327C434.275 439.944 434.277 440.588 434.264 441.26C434.252 441.903 434.211 442.603 434.14 443.358C434.002 444.727 433.73 445.828 433.322 446.661C432.942 447.494 432.426 448.128 431.773 448.564C431.121 448.999 430.345 449.279 429.447 449.402C428.548 449.553 427.524 449.617 426.377 449.595C424.613 449.562 423.2 449.479 422.139 449.347C421.048 449.242 420.51 448.854 420.522 448.182C420.533 447.622 420.848 447.25 421.468 447.066C422.087 446.909 422.97 446.842 424.118 446.864C425.518 446.891 426.618 446.477 427.418 445.624C428.246 444.8 428.872 443.552 429.296 441.879C429.72 440.207 429.997 438.126 430.128 435.636C430.26 433.118 430.357 430.207 430.42 426.904C430.433 426.232 430.433 425.49 430.42 424.678C430.436 423.838 430.41 423.011 430.341 422.198C430.273 421.356 430.163 420.542 430.01 419.755C429.885 418.94 429.689 418.209 429.421 417.559C429.287 417.249 429.084 416.881 428.812 416.456C428.568 416.031 428.449 415.679 428.454 415.399C428.46 415.091 428.52 414.868 428.635 414.73C428.778 414.565 429.004 414.443 429.314 414.365C429.652 414.287 430.1 414.254 430.66 414.264C431.249 414.247 431.991 414.248 432.887 414.265C434.258 414.291 435.294 414.338 435.992 414.408C436.691 414.477 437.178 414.626 437.454 414.855C437.73 415.085 437.863 415.451 437.853 415.955C437.872 416.432 437.874 417.104 437.857 417.972C437.856 419.512 437.938 421.082 438.104 422.681C438.27 424.253 438.575 425.883 439.019 427.571C439.071 427.768 439.177 428.092 439.337 428.544C439.525 428.967 439.74 429.405 439.984 429.858C440.255 430.311 440.542 430.709 440.843 431.051C441.145 431.364 441.464 431.525 441.8 431.531C442.164 431.538 442.449 431.305 442.654 430.833C442.887 430.333 443.066 429.763 443.19 429.121C443.315 428.451 443.397 427.809 443.437 427.193C443.477 426.55 443.5 426.102 443.505 425.85C443.514 425.346 443.568 424.731 443.666 424.005C443.764 423.251 443.793 422.467 443.752 421.654C443.74 420.842 443.629 420.056 443.419 419.295C443.21 418.507 442.789 417.827 442.155 417.255C442.073 417.169 441.935 417.069 441.741 416.953C441.575 416.838 441.396 416.695 441.203 416.523C441.038 416.352 440.888 416.167 440.752 415.968C440.615 415.77 440.549 415.558 440.554 415.334C440.563 414.858 440.946 414.6 441.703 414.558C442.488 414.489 443.679 414.469 445.274 414.5C446.73 414.527 447.793 414.618 448.462 414.77C449.159 414.896 449.502 415.266 449.491 415.882Z" fill="black"/>
</g>
<defs>
<clipPath id="clip0_1_2">
<rect width="500" height="500" fill="white" transform="translate(65 12)"/>
</clipPath>
</defs>
</svg>
